<?xml version="1.0" standalone="no"?>
<!DOCTYPE svg PUBLIC "-//W3C//DTD SVG 20010904//EN"
 "http://www.w3.org/TR/2001/REC-SVG-20010904/DTD/svg10.dtd">
<svg version="1.0" xmlns="http://www.w3.org/2000/svg"
 width="287.000000pt" height="287.000000pt" viewBox="0 0 287.000000 287.000000"
 preserveAspectRatio="xMidYMid meet">
<metadata>
Created by potrace 1.14, written by Peter Selinger 2001-2017
</metadata>
<g transform="translate(0.000000,287.000000) scale(0.100000,-0.100000)"
fill="#000000" stroke="none">
<path d="M0 1435 l0 -1435 1435 0 1435 0 0 1435 0 1435 -1435 0 -1435 0 0
-1435z m1410 819 c-11 -208 -21 -398 -22 -421 l-3 -42 -205 190 c-200 185
-205 190 -216 242 -7 28 -12 47 -13 41 -1 -11 102 -663 115 -729 7 -34 28 -53
-378 341 l-208 202 42 98 42 99 160 67 c89 37 283 118 431 182 149 63 271 113
273 112 1 -2 -7 -173 -18 -382z m345 246 c116 -48 285 -118 376 -156 l167 -69
115 -275 c143 -340 240 -581 240 -596 0 -7 -26 -77 -59 -158 -55 -138 -60
-146 -89 -151 -47 -7 -727 -66 -730 -63 -2 2 81 108 183 236 l186 232 210 2
211 2 -160 6 c-88 4 -245 8 -350 9 -104 1 -214 4 -244 8 l-55 6 275 270 c279
274 195 199 -275 -245 l-261 -246 -3 99 c-3 95 -1 103 27 152 47 82 426 800
435 822 16 42 -13 -6 -235 -396 -126 -222 -229 -399 -229 -393 0 5 -11 214
-25 464 -14 250 -25 481 -25 512 l0 58 53 -21 c28 -11 147 -60 262 -109z
m-765 -1512 l63 -68 -209 -1 c-239 -2 -489 -14 -369 -18 39 -1 195 -8 348 -15
l278 -12 117 -119 118 -120 -9 -211 -9 -210 -381 156 -381 156 -79 195 c-43
107 -121 298 -174 424 -53 127 -96 235 -96 240 0 9 39 108 97 247 l15 36 304
-306 c167 -169 332 -337 367 -374z m-71 432 l194 -9 34 -33 c19 -18 75 -76
123 -129 l89 -95 -12 -197 -12 -196 -355 325 c-195 179 -361 331 -369 339 -11
11 -2 12 50 9 35 -2 151 -9 258 -14z"/>
<path d="M942 2300 c0 -14 2 -19 5 -12 2 6 2 18 0 25 -3 6 -5 1 -5 -13z"/>
</g>
</svg>
